<svg xmlns="http://www.w3.org/2000/svg" fill="none" viewBox="0 0 1920 1080" height="1080" width="1920">
<path fill="black" d="M667.812 490.406H671.23V513.648C680.215 498.219 690.859 490.406 703.164 490.406C709.414 490.406 715.273 492.555 720.84 496.754C726.309 500.953 730.801 506.91 734.316 514.723C737.734 522.535 739.492 531.129 739.492 540.699C739.492 548.805 738.125 556.422 735.586 563.648C733.047 570.875 729.629 576.93 725.43 581.812C721.133 586.793 716.25 590.699 710.781 593.531C705.215 596.461 699.551 597.828 693.789 597.828C684.609 597.828 677.09 594.703 671.23 588.453V616.48C671.23 624.684 672.402 630.25 674.746 632.984C677.09 635.719 681.582 637.086 688.32 637.086V641.188H638.418V637.086C644.961 637.086 649.355 635.816 651.602 633.18C653.848 630.543 655.02 624.977 655.02 616.48V524C655.02 516.285 654.336 511.207 652.969 508.668C651.406 506.227 649.258 504.957 646.328 504.957C644.57 504.957 642.422 505.445 639.98 506.227L638.418 502.418L667.812 490.406ZM671.23 520.484V558.277C671.23 566.871 671.914 573.023 673.281 576.734C674.648 580.836 677.188 584.254 681.094 586.988C684.902 589.723 689.199 591.09 693.887 591.09C702.48 591.09 709.414 587.281 714.492 579.566C719.57 571.852 722.207 561.5 722.207 548.609C722.207 536.305 719.668 526.051 714.59 518.043C709.512 510.035 702.871 505.934 694.668 505.934C686.074 505.934 678.262 510.816 671.23 520.484ZM816.836 497.926H838.32C841.055 497.926 842.422 499.098 842.422 501.441V505.445C842.422 507.398 841.25 508.277 838.906 508.277H824.551C827.969 514.039 829.727 520.289 829.727 527.027C829.727 537.379 826.406 545.777 819.863 552.32C813.32 558.863 805.117 562.086 795.156 562.086C790.664 562.086 786.27 561.402 781.973 559.938C776.504 565.211 773.867 569.605 773.867 573.121C773.867 575.66 775.332 577.418 778.262 578.297C781.191 579.273 786.27 579.664 793.594 579.664L810.195 579.566C821.328 579.566 829.336 581.91 834.316 586.402C839.199 590.992 841.738 596.266 841.738 602.223C841.738 609.645 839.102 616.578 834.023 622.828C828.945 629.078 822.402 633.961 814.492 637.379C806.484 640.895 798.281 642.555 789.883 642.555C780.02 642.555 771.23 640.406 763.516 636.012C755.703 631.715 751.895 627.027 751.895 622.047C751.895 619.215 752.969 615.992 755.117 612.477C757.07 609.156 762.344 602.711 771.035 593.141C764.199 590.699 760.879 587.086 760.879 582.301C760.879 575.367 766.25 567.164 776.992 557.691C765.664 551.344 760 541.383 760 527.711C760 517.75 763.32 509.156 770.156 502.125C776.992 495.094 785.684 491.578 796.23 491.578C804.043 491.578 810.977 493.727 816.836 497.926ZM776.699 518.336C776.699 525.27 777.48 531.617 779.238 537.379C780.898 543.238 783.34 547.828 786.562 551.344C789.785 554.859 793.496 556.617 797.793 556.617C802.188 556.617 805.703 554.371 808.438 549.781C811.172 545.191 812.539 539.234 812.539 532.008C812.539 523.219 810.586 515.211 806.68 508.18C802.773 501.148 797.793 497.535 791.836 497.535C787.246 497.535 783.535 499.586 780.801 503.59C778.066 507.594 776.699 512.477 776.699 518.336ZM775.625 594.215C769.473 601.344 766.445 607.691 766.445 613.258C766.445 616.773 768.008 619.801 771.328 622.242C774.551 624.781 778.652 626.539 783.633 627.711C788.613 628.883 794.18 629.371 800.234 629.371C810.391 629.371 818.789 627.32 825.43 623.023C832.07 618.727 835.391 613.551 835.391 607.301C835.391 603.785 833.828 601.051 830.703 599.195C827.578 597.34 818.398 596.266 803.359 595.973C788.32 595.777 779.043 595.191 775.625 594.215ZM971.816 557.301L975.332 558.57L963.711 599H854.043V594.996C865.176 594.996 871.621 592.066 873.477 586.012C874.258 583.473 874.648 578.102 874.648 569.703V477.223C874.648 468.629 874.16 462.965 873.379 460.426C871.426 455.055 864.98 452.223 854.043 451.93V447.926H915.762V451.93C905.215 452.223 899.062 455.055 897.305 460.426C896.426 462.965 896.035 468.629 896.035 477.223V580.348C896.035 583.863 896.621 586.207 897.891 587.379C899.062 588.551 901.992 589.039 906.582 589.039H932.266C942.812 589.039 950.82 586.891 956.289 582.398C961.758 578.004 966.934 569.605 971.816 557.301ZM1078.36 552.711L1080.41 557.496C1077.29 570.387 1072.5 578.199 1066.15 581.129C1058.54 584.449 1052.38 580.934 1047.7 570.484C1041.45 585.914 1033.83 595.582 1024.65 599.684C1019.38 602.223 1014 602.32 1008.54 599.781C1002.97 597.242 998.867 593.043 996.328 587.086C992.91 579.469 993.691 571.07 998.77 561.891C1003.75 552.809 1013.71 541.188 1028.65 527.027C1025.14 519.02 1022.21 513.16 1020.06 509.547C1015.57 502.906 1008.83 501.637 999.648 505.836C995.547 507.789 992.715 510.328 991.152 513.648C989.492 517.359 989.492 521.07 991.152 524.781C991.445 525.758 991.934 526.734 992.617 527.711C993.105 528.59 993.496 529.371 993.789 530.152C996.035 535.426 994.766 539.137 990.078 541.285C984.707 543.629 980.898 542.262 978.652 536.988C975.82 530.738 976.504 524.195 980.703 517.359C984.805 510.523 991.836 504.762 1001.6 500.27C1008.83 496.949 1015.08 495.387 1020.35 495.582C1025.43 495.777 1029.34 497.34 1032.17 500.172C1035 503.004 1038.12 508.277 1041.54 515.895L1060.59 559.449C1063.22 565.504 1066.35 567.652 1069.86 565.992C1073.38 564.43 1076.21 560.035 1078.36 552.711ZM1045.84 566.383L1030.9 532.105C1019.77 544.02 1012.83 552.809 1010.2 558.473C1007.36 564.234 1007.17 569.898 1009.51 575.465C1011.37 579.762 1014.3 582.691 1018.3 584.449C1022.21 586.207 1026.21 586.207 1030.21 584.449C1036.27 581.715 1041.54 575.66 1045.84 566.383ZM1107.07 494.605H1110.49V516.09C1116.93 508.082 1122.4 502.418 1127.09 499.293C1131.68 496.168 1136.76 494.605 1142.23 494.605C1149.65 494.605 1155.51 497.633 1160 503.688C1164.39 509.938 1166.64 518.824 1166.64 530.445V574.586C1166.64 582.398 1167.62 587.672 1169.67 590.504C1171.62 593.336 1175.33 594.801 1180.7 594.996V599H1133.93V594.996C1140.18 594.996 1144.47 593.727 1146.82 590.992C1149.06 588.258 1150.23 582.789 1150.23 574.586V531.52C1150.23 515.504 1144.86 507.496 1134.32 507.496C1126.5 507.496 1118.59 512.379 1110.49 522.047V574.586C1110.49 582.398 1111.46 587.672 1113.61 590.504C1115.66 593.434 1119.67 594.898 1125.62 594.996V599H1079.73V594.996C1085.39 594.898 1089.3 593.434 1091.25 590.504C1093.2 587.672 1094.18 582.398 1094.18 574.586V525.074C1094.18 514.332 1091.45 508.961 1086.07 508.961C1084.12 508.961 1081.97 509.645 1079.73 510.816L1078.36 506.617L1107.07 494.605ZM1256.48 497.926H1277.97C1280.7 497.926 1282.07 499.098 1282.07 501.441V505.445C1282.07 507.398 1280.9 508.277 1278.55 508.277H1264.2C1267.62 514.039 1269.38 520.289 1269.38 527.027C1269.38 537.379 1266.05 545.777 1259.51 552.32C1252.97 558.863 1244.77 562.086 1234.8 562.086C1230.31 562.086 1225.92 561.402 1221.62 559.938C1216.15 565.211 1213.52 569.605 1213.52 573.121C1213.52 575.66 1214.98 577.418 1217.91 578.297C1220.84 579.273 1225.92 579.664 1233.24 579.664L1249.84 579.566C1260.98 579.566 1268.98 581.91 1273.96 586.402C1278.85 590.992 1281.39 596.266 1281.39 602.223C1281.39 609.645 1278.75 616.578 1273.67 622.828C1268.59 629.078 1262.05 633.961 1254.14 637.379C1246.13 640.895 1237.93 642.555 1229.53 642.555C1219.67 642.555 1210.88 640.406 1203.16 636.012C1195.35 631.715 1191.54 627.027 1191.54 622.047C1191.54 619.215 1192.62 615.992 1194.77 612.477C1196.72 609.156 1201.99 602.711 1210.68 593.141C1203.85 590.699 1200.53 587.086 1200.53 582.301C1200.53 575.367 1205.9 567.164 1216.64 557.691C1205.31 551.344 1199.65 541.383 1199.65 527.711C1199.65 517.75 1202.97 509.156 1209.8 502.125C1216.64 495.094 1225.33 491.578 1235.88 491.578C1243.69 491.578 1250.62 493.727 1256.48 497.926ZM1216.35 518.336C1216.35 525.27 1217.13 531.617 1218.89 537.379C1220.55 543.238 1222.99 547.828 1226.21 551.344C1229.43 554.859 1233.14 556.617 1237.44 556.617C1241.84 556.617 1245.35 554.371 1248.09 549.781C1250.82 545.191 1252.19 539.234 1252.19 532.008C1252.19 523.219 1250.23 515.211 1246.33 508.18C1242.42 501.148 1237.44 497.535 1231.48 497.535C1226.89 497.535 1223.18 499.586 1220.45 503.59C1217.71 507.594 1216.35 512.477 1216.35 518.336ZM1215.27 594.215C1209.12 601.344 1206.09 607.691 1206.09 613.258C1206.09 616.773 1207.66 619.801 1210.98 622.242C1214.2 624.781 1218.3 626.539 1223.28 627.711C1228.26 628.883 1233.83 629.371 1239.88 629.371C1250.04 629.371 1258.44 627.32 1265.08 623.023C1271.72 618.727 1275.04 613.551 1275.04 607.301C1275.04 603.785 1273.48 601.051 1270.35 599.195C1267.23 597.34 1258.05 596.266 1243.01 595.973C1227.97 595.777 1218.69 595.191 1215.27 594.215Z"></path>
</svg>
